<svg xmlns="http://www.w3.org/2000/svg" viewBox="0 0 2000 1000" width="2000" height="1000">
  <path d="M 100,100 a 100 50 -45 0 0 100,0" stroke="red" stroke-width="10" />
  <path d="M 100,200 a 100 50 -45 1 0 100,0" stroke="red" stroke-width="10" />
  <path d="M 250,100 a 100 50 -45 0 1 100,0" stroke="red" stroke-width="10" />
  <path d="M 250,300 a 100 50 -45 1 1 100,0" stroke="red" stroke-width="10" />

  <path d="M 500,100 a 100 50 0 0 0 100,0" stroke="red" stroke-width="10" />
  <path d="M 500,200 a 100 50 0 1 0 100,0" stroke="red" stroke-width="10" />
  <path d="M 650,100 a 100 50 0 0 1 100,0" stroke="red" stroke-width="10" />
  <path d="M 750,300 a 100 50 0 1 1 100,0" stroke="red" stroke-width="10" />

  <path d="M 100,400 a 100 50 90 0 0 100,0" stroke="red" stroke-width="10" />
  <path d="M 100,550 a 100 50 90 1 0 100,0" stroke="red" stroke-width="10" />
  <path d="M 250,450 a 100 50 90 0 1 100,0" stroke="red" stroke-width="10" />
  <path d="M 250,600 a 100 50 90 1 1 100,0" stroke="red" stroke-width="10" />

  <path d="M 740,550 A 100 50 -45 0 0 550,500" stroke="red" stroke-width="10" />
</svg>
